# xmcd
#
# Track frame offsets:
#	150
#	10353
#	28803
#	50285
#	71934
#	85742
#	109776
#	128508
#	147583
#	158392
#	169204
#	181961
#	194327
#	210290
#	230332
#	251527
#	266322
#
# Disc length: 3693 seconds
#
# Revision: 1
# Processed by: cddbd v1.4b41PL1 Copyright (c) Steve Scherf et al.
# Submitted via: audiograbber 1.80
#
DISCID=e10e6b11
DTITLE=ZZ Top - Blues Compilation
DYEAR=1900
DGENRE=
TTITLE0=Tush
TTITLE1=Pearl Necklace
TTITLE2=I'm Bad, I'm Nationwide
TTITLE3=Cheap Sunglasses
TTITLE4=Tube Snake Boogie
TTITLE5=Brown Sugar
TTITLE6=Just Got Back From Babies
TTITLE7=A Fool For Your Stockings
TTITLE8=She Loves My Automobile
TTITLE9=Hi Fi Mama
TTITLE10=Lowdown in the Street
TTITLE11=Apologies to Pearly
TTITLE12=Francine
TTITLE13=Just Got Paid
TTITLE14=Blue Jean Blues
TTITLE15=Backdoor Love Affair
TTITLE16=Heard It On The X
EXTD=
EXTT0=
EXTT1=
EXTT2=
EXTT3=
EXTT4=
EXTT5=
EXTT6=
EXTT7=
EXTT8=
EXTT9=
EXTT10=
EXTT11=
EXTT12=
EXTT13=
EXTT14=
EXTT15=
EXTT16=
PLAYORDER=
